<svg width="70" height="70" viewBox="0 0 70 70" fill="none" xmlns="http://www.w3.org/2000/svg">
<g clip-path="url(#clip0_2_40)">
<path d="M35 0C32.585 0 30.625 1.96 30.625 4.375V13.125C30.625 15.54 32.585 17.5 35 17.5C37.415 17.5 39.375 15.54 39.375 13.125V4.375C39.375 1.96 37.415 0 35 0ZM35 52.5C32.585 52.5 30.625 54.4556 30.625 56.875V65.625C30.625 68.0444 32.585 70 35 70C37.415 70 39.375 68.0444 39.375 65.625V56.875C39.375 54.4556 37.415 52.5 35 52.5ZM53.5588 22.6275L59.745 16.4369C61.4556 14.7306 61.4556 11.9569 59.745 10.2506C58.0387 8.54 55.2694 8.54 53.5588 10.2506L47.3725 16.4369C45.6619 18.1475 45.6619 20.9169 47.3725 22.6275C49.0831 24.3337 51.8525 24.3337 53.5588 22.6275ZM16.4369 47.3725L10.2506 53.5588C8.54 55.2694 8.54 58.0387 10.2506 59.745C11.9569 61.4556 14.7262 61.4556 16.4369 59.745L22.6231 53.5588C24.3337 51.8481 24.3337 49.0831 22.6231 47.3725C20.9169 45.6663 18.1475 45.6663 16.4369 47.3725ZM16.4369 10.2506C14.7262 8.54 11.9569 8.54 10.2506 10.2506C8.54 11.9569 8.54 14.7306 10.2506 16.4369L16.4369 22.6275C18.1475 24.3337 20.9169 24.3337 22.6231 22.6275C24.3337 20.9169 24.3337 18.1475 22.6231 16.4369L16.4369 10.2506ZM53.5588 47.3725C51.8481 45.6619 49.0831 45.6619 47.3725 47.3725C45.6619 49.0831 45.6619 51.8481 47.3725 53.5588L53.5588 59.745C55.2694 61.4556 58.0387 61.4556 59.745 59.745C61.4556 58.0387 61.4556 55.2694 59.745 53.5588L53.5588 47.3725ZM65.625 30.625H56.875C54.4556 30.625 52.5 32.585 52.5 35C52.5 37.415 54.4556 39.375 56.875 39.375H65.625C68.0444 39.375 70 37.415 70 35C70 32.585 68.0444 30.625 65.625 30.625ZM17.5 35C17.5 32.585 15.54 30.625 13.125 30.625H4.375C1.96 30.625 0 32.585 0 35C0 37.415 1.96 39.375 4.375 39.375H13.125C15.54 39.375 17.5 37.415 17.5 35Z" fill="white" fill-opacity="0.709804"/>
</g>
<defs>
<clipPath id="clip0_2_40">
<rect width="70" height="70" fill="white"/>
</clipPath>
</defs>
</svg>
