<svg width="43" height="40" viewBox="0 0 43 40" fill="none" xmlns="http://www.w3.org/2000/svg">
<path d="M32.5187 6.67188H28.7142V9.36719C28.7142 11.2266 27.0849 12.7344 25.0945 12.7344H17.9223C15.9234 12.7344 14.3025 11.2187 14.3025 9.36719V6.67188H10.498C9.38944 6.67188 8.49921 7.50781 8.49921 8.53125V35.8047C8.49921 36.8359 9.39784 37.6641 10.498 37.6641H32.5271C33.6357 37.6641 34.526 36.8281 34.526 35.8047V8.53125C34.5176 7.50781 33.6189 6.67188 32.5187 6.67188ZM30.3099 35.0547H28.7226V31.9531C28.7226 31.6484 28.4623 31.4062 28.1348 31.4062C27.8072 31.4062 27.5469 31.6484 27.5469 31.9531V35.0547H12.69V27.6172H17.8635C18.065 27.6172 18.2498 27.5234 18.359 27.3594L20.3158 24.4688V31.6875C20.3158 31.9297 20.4838 32.1406 20.7357 32.2109C20.7945 32.2266 20.8533 32.2344 20.9037 32.2344C21.0969 32.2344 21.2816 32.1484 21.3908 31.9922L24.9937 26.9766H30.3015V35.0547H30.3099ZM30.3099 25.8906H24.683C24.4898 25.8906 24.3051 25.9844 24.1959 26.1328L21.4916 29.8906V22.5781C21.4916 22.3359 21.3152 22.1172 21.0633 22.0547C20.8113 21.9844 20.5426 22.0859 20.3998 22.2891L17.5359 26.5234H12.69V19.3516H30.3015V25.8906H30.3099ZM30.3099 17.1875H12.69V14.7031H30.3015V17.1875H30.3099Z" fill="#72B5A4"/>
<path d="M28.6723 30.0469C28.6555 30.0156 28.6387 29.9844 28.6219 29.9531C28.5967 29.9219 28.5799 29.8984 28.5463 29.8672C28.5211 29.8438 28.4875 29.8203 28.4539 29.7969C28.4203 29.7734 28.3867 29.7578 28.3531 29.7422C28.3195 29.7266 28.2775 29.7188 28.2439 29.7109C28.1684 29.6953 28.0928 29.6953 28.0172 29.7109C27.9836 29.7188 27.9416 29.7266 27.908 29.7422C27.8744 29.7578 27.8408 29.7734 27.8072 29.7969C27.7736 29.8203 27.74 29.8359 27.7148 29.8672C27.6896 29.8906 27.6645 29.9219 27.6393 29.9531C27.6141 29.9844 27.5973 30.0156 27.5889 30.0469C27.5721 30.0781 27.5637 30.1172 27.5553 30.1484C27.5469 30.1875 27.5469 30.2188 27.5469 30.2578C27.5469 30.3984 27.6141 30.5391 27.7148 30.6406C27.74 30.6641 27.7736 30.6875 27.8072 30.7109C27.8408 30.7344 27.8744 30.75 27.908 30.7578C27.9416 30.7734 27.9836 30.7813 28.0172 30.7891C28.0592 30.7969 28.0928 30.7969 28.1348 30.7969C28.1768 30.7969 28.2104 30.7969 28.2523 30.7891C28.2943 30.7813 28.3279 30.7734 28.3615 30.7578C28.3951 30.7422 28.4287 30.7266 28.4623 30.7109C28.4959 30.6875 28.5211 30.6719 28.5547 30.6406C28.6639 30.5391 28.7311 30.3984 28.7311 30.2578C28.7311 30.2188 28.7311 30.1875 28.7227 30.1484C28.7059 30.1172 28.6891 30.0781 28.6723 30.0469Z" fill="#72B5A4"/>
<path d="M17.9139 10.6719H25.0861C25.8588 10.6719 26.4887 10.0859 26.4887 9.36719V6.67188H24.2715V4.90625C24.2715 3.48438 23.0285 2.32812 21.5 2.32812C19.9715 2.32812 18.7285 3.48438 18.7285 4.90625V6.67188H16.5029V9.36719C16.5029 10.0859 17.1328 10.6719 17.9139 10.6719Z" fill="#72B5A4"/>
</svg>
